<svg width="129" height="20" viewBox="0 0 129 20" fill="none" xmlns="http://www.w3.org/2000/svg">
<path d="M2.99745 12.0204C2.99745 14.2245 2.99745 16.0383 2.88265 17.0026C2.79082 17.6684 2.67602 18.1735 2.21684 18.2653C2.0102 18.3112 1.73469 18.3571 1.52806 18.3571C1.39031 18.3571 1.34439 18.426 1.34439 18.4949C1.34439 18.6327 1.45918 18.6786 1.71173 18.6786C2.40051 18.6786 3.84694 18.6097 3.91582 18.6097C4.03061 18.6097 5.47704 18.6786 6.7398 18.6786C6.99235 18.6786 7.10714 18.6097 7.10714 18.4949C7.10714 18.426 7.06122 18.3571 6.92347 18.3571C6.71684 18.3571 6.21173 18.3112 5.89031 18.2653C5.20153 18.1735 5.06378 17.6684 4.9949 17.0026C4.8801 16.0383 4.8801 14.2245 4.8801 12.0204V2.58418C4.8801 2.35459 4.92602 2.19388 5.06378 2.14796C5.27041 2.05612 5.66071 2.0102 6.05102 2.0102C6.57908 2.0102 7.97959 1.91837 9.19643 3.15816C10.4133 4.39796 10.4821 5.93622 10.4821 6.69388C10.4821 8.80612 8.73725 10.4362 6.5102 10.4362C6.02806 10.4362 5.89031 10.4592 5.89031 10.6429C5.89031 10.7577 6.02806 10.8036 6.14286 10.8036C6.25765 10.8265 6.5102 10.8265 6.625 10.8265C9.8852 10.8265 12.273 8.62245 12.273 5.36224C12.273 4.14541 11.6301 3.11225 11.125 2.6301C10.7577 2.28571 9.72449 1.32143 6.85459 1.32143C5.79847 1.32143 4.46684 1.39031 3.96174 1.39031C3.77806 1.39031 2.40051 1.32143 1.36735 1.32143C1.1148 1.32143 1 1.36735 1 1.5051C1 1.59694 1.09184 1.64286 1.18367 1.64286C1.39031 1.64286 1.78061 1.66582 1.96429 1.71173C2.72194 1.87245 2.90561 2.2398 2.95153 3.02041C2.99745 3.7551 2.99745 4.39796 2.99745 7.97959V12.0204Z" fill="#121629"/>
<path d="M15.2503 16.1531C14.837 17.301 14.3778 18.1735 13.3217 18.3112C13.1381 18.3342 12.8166 18.3571 12.6559 18.3571C12.5411 18.3571 12.4493 18.4031 12.4493 18.4949C12.4493 18.6327 12.587 18.6786 12.8855 18.6786C13.9646 18.6786 15.2273 18.6097 15.4799 18.6097C15.7324 18.6097 16.7197 18.6786 17.2707 18.6786C17.4773 18.6786 17.6151 18.6327 17.6151 18.4949C17.6151 18.4031 17.5462 18.3571 17.3855 18.3571H17.1559C16.7656 18.3571 16.2835 18.1505 16.2835 17.6913C16.2835 17.2781 16.3983 16.727 16.6049 16.1531L17.9824 12.0893C18.0284 11.9745 18.0972 11.9056 18.212 11.9056H23.1483C23.2631 11.9056 23.309 11.9515 23.3549 12.0434L25.4901 17.6913C25.6279 18.0587 25.4901 18.2653 25.3523 18.3112C25.2605 18.3342 25.1916 18.3801 25.1916 18.4719C25.1916 18.6097 25.4442 18.6097 25.8804 18.6327C27.4646 18.6786 29.1406 18.6786 29.485 18.6786C29.7375 18.6786 29.9442 18.6327 29.9442 18.4949C29.9442 18.3801 29.8523 18.3571 29.7146 18.3571C29.485 18.3571 29.1406 18.3342 28.7962 18.2194C28.3141 18.0816 27.6483 17.7143 26.8217 15.6709C25.4212 12.1811 21.8166 2.69898 21.4722 1.82653C21.1967 1.1148 21.1049 1 20.9671 1C20.8294 1 20.7375 1.13775 20.462 1.89541L15.2503 16.1531ZM18.4646 11.0791C18.3957 11.0791 18.3498 11.0332 18.3957 10.9184L20.4161 4.71939C20.5309 4.375 20.6457 4.375 20.7605 4.71939L22.9416 10.9184C22.9646 11.0102 22.9646 11.0791 22.8498 11.0791H18.4646Z" fill="#121629"/>
<path d="M33.691 12.0204C33.691 14.2245 33.691 16.0383 33.5762 17.0026C33.4844 17.6684 33.3696 18.1735 32.9104 18.2653C32.7038 18.3112 32.4282 18.3571 32.2216 18.3571C32.0839 18.3571 32.0379 18.426 32.0379 18.4949C32.0379 18.6327 32.1527 18.6786 32.4053 18.6786C33.0941 18.6786 34.4257 18.6097 34.6094 18.6097C34.793 18.6097 36.1247 18.6786 37.2497 18.6786C37.5022 18.6786 37.617 18.6097 37.617 18.4949C37.617 18.426 37.5711 18.3571 37.4334 18.3571C37.2267 18.3571 36.8594 18.3112 36.5379 18.2653C35.8492 18.1735 35.7114 17.6684 35.6425 17.0026C35.5277 16.0383 35.5277 14.2245 35.5277 12.0204V9.77041H35.6425C36.7446 11.125 41.6119 16.3827 42.6451 17.2321C43.6323 18.0128 44.2063 18.5179 45.4231 18.6327C45.9282 18.6786 46.3645 18.6786 47.0073 18.6786H48.1782C48.5686 18.6786 48.6834 18.6097 48.6834 18.4949C48.6834 18.4031 48.5456 18.3571 48.3849 18.3571C48.2242 18.3571 47.5584 18.3112 46.9614 18.0587C45.8594 17.5995 45.4691 17.2321 43.5405 15.4413C42.5992 14.5689 37.8237 9.63265 37.2267 8.96684C37.7089 8.39286 41.7038 4.4898 42.2777 3.93877C43.3109 2.95153 43.816 2.37755 44.7573 1.96429C45.2165 1.75765 45.6987 1.64286 46.043 1.64286C46.2267 1.64286 46.2726 1.59694 46.2726 1.48214C46.2726 1.36735 46.1808 1.32143 45.9283 1.32143C45.3543 1.32143 43.839 1.39031 43.7242 1.39031C43.1731 1.39031 42.4614 1.32143 42.0022 1.32143C41.8415 1.32143 41.7267 1.36735 41.7267 1.48214C41.7267 1.57398 41.8186 1.6199 41.9334 1.66582C42.117 1.73469 42.2318 1.87245 42.2318 2.14796C42.2318 2.53826 41.6349 3.1352 40.992 3.80102C40.1655 4.69643 36.0099 8.92092 35.6196 9.35714H35.5277V7.97959C35.5277 4.39796 35.5277 3.7551 35.5737 3.02041C35.6196 2.21684 35.8032 1.82653 36.4231 1.71173C36.6987 1.66582 36.8364 1.64286 36.9971 1.64286C37.089 1.64286 37.1808 1.59694 37.1808 1.5051C37.1808 1.36735 37.066 1.32143 36.8135 1.32143C36.1247 1.32143 34.793 1.39031 34.5864 1.39031C34.4487 1.39031 33.0941 1.32143 32.0609 1.32143C31.8084 1.32143 31.6936 1.36735 31.6936 1.5051C31.6936 1.59694 31.7854 1.64286 31.8772 1.64286C32.0839 1.64286 32.4742 1.66582 32.6578 1.71173C33.4155 1.87245 33.5992 2.2398 33.6451 3.02041C33.691 3.7551 33.691 4.39796 33.691 7.97959V12.0204Z" fill="#121629"/>
<path d="M56.3047 2.30867L59.1976 2.35459C61.4017 2.40051 61.9527 2.92857 62.0216 3.61735L62.0445 3.8699C62.0675 4.19133 62.1134 4.2602 62.2282 4.2602C62.32 4.2602 62.3889 4.16837 62.3889 3.96174C62.3889 3.70918 62.4578 2.125 62.4578 1.43622C62.4578 1.29847 62.4578 1.16071 62.343 1.16071C62.2512 1.16071 62.0445 1.22959 61.7001 1.27551C61.3328 1.34439 60.8047 1.39031 60.07 1.39031H51.4603C51.1848 1.39031 50.3124 1.34439 49.6466 1.27551C49.0267 1.22959 48.7971 1 48.6364 1C48.5445 1 48.4527 1.29847 48.4068 1.43622C48.3608 1.6199 47.9017 3.59439 47.9017 3.82398C47.9017 3.96174 47.9476 4.03061 48.0165 4.03061C48.1083 4.03061 48.1772 3.98469 48.2461 3.80102C48.3149 3.64031 48.3838 3.47959 48.6364 3.08928C49.0037 2.53826 49.5547 2.37755 50.9782 2.35459L54.3762 2.30867V12.0204C54.3762 14.2245 54.3762 16.0383 54.2614 17.0026C54.1695 17.6684 54.0547 18.1735 53.5955 18.2653C53.3889 18.3112 53.1134 18.3571 52.9068 18.3571C52.769 18.3571 52.7231 18.426 52.7231 18.4949C52.7231 18.6327 52.8379 18.6786 53.0904 18.6786C53.7792 18.6786 55.2256 18.6097 55.3404 18.6097C55.4552 18.6097 56.9017 18.6786 58.1644 18.6786C58.417 18.6786 58.5318 18.6097 58.5318 18.4949C58.5318 18.426 58.4858 18.3571 58.3481 18.3571C58.1415 18.3571 57.6364 18.3112 57.3149 18.2653C56.6262 18.1735 56.4884 17.6684 56.4195 17.0026C56.3047 16.0383 56.3047 14.2245 56.3047 12.0204V2.30867Z" fill="#121629"/>
<path d="M64.4353 9.97704C64.4353 14.1097 67.0527 19 73.3435 19C78.8767 19 82.5042 14.7526 82.5042 9.60969C82.5042 4.2602 78.6471 1 73.4812 1C67.1445 1 64.4353 6.25765 64.4353 9.97704ZM66.6164 9.33418C66.6164 4.30612 69.4864 1.78061 73.3205 1.78061C76.9481 1.78061 80.3001 4.74235 80.3001 10.2526C80.3001 16.9337 76.0297 18.1276 73.9634 18.1276C69.8307 18.1276 66.6164 14.6837 66.6164 9.33418Z" fill="#121629"/>
<path d="M89.7539 7.97959C89.7539 4.39796 89.7539 3.7551 89.7998 3.02041C89.8458 2.21684 90.0294 1.82653 90.6952 1.71173C90.9708 1.66582 91.2922 1.64286 91.4529 1.64286C91.5447 1.64286 91.6366 1.59694 91.6366 1.5051C91.6366 1.36735 91.5218 1.32143 91.2692 1.32143C90.5805 1.32143 88.9044 1.39031 88.7896 1.39031C88.6748 1.39031 87.2284 1.32143 86.1953 1.32143C85.9427 1.32143 85.8279 1.36735 85.8279 1.5051C85.8279 1.59694 85.9197 1.64286 86.0116 1.64286C86.2182 1.64286 86.6085 1.66582 86.7922 1.71173C87.5498 1.87245 87.7335 2.2398 87.7794 3.02041C87.8254 3.7551 87.8253 4.39796 87.8253 7.97959V12.0204C87.8253 14.2245 87.8254 16.0383 87.7106 17.0026C87.6187 17.6684 87.5039 18.1735 87.0447 18.2653C86.8381 18.3112 86.5626 18.3571 86.356 18.3571C86.2182 18.3571 86.1723 18.426 86.1723 18.4949C86.1723 18.6327 86.2871 18.6786 86.5396 18.6786C86.884 18.6786 87.3891 18.6556 87.8483 18.6327C88.3075 18.6327 88.6978 18.6097 88.7896 18.6097C89.4555 18.6097 90.1672 18.6327 91.1315 18.6786C92.0958 18.7015 93.2896 18.7474 94.9427 18.7474C96.1595 18.7474 96.2284 18.6556 96.3891 18.1276C96.5728 17.4617 96.7335 16.0842 96.7335 15.8316C96.7335 15.5791 96.7106 15.4872 96.5958 15.4872C96.458 15.4872 96.4121 15.602 96.3891 15.7857C96.3203 16.2219 96.0907 16.7959 95.7922 17.1633C95.2412 17.8291 94.231 17.852 93.0141 17.852C91.2233 17.852 90.6264 17.6913 90.259 17.324C89.8458 16.9107 89.7539 15.4413 89.7539 12.0663V7.97959Z" fill="#121629"/>
<path d="M100.406 11.3316C100.406 14.6837 101.278 16.2908 102.403 17.3699C104.033 18.9082 106.352 19 107.133 19C108.487 19 110.209 18.7704 111.862 17.301C113.699 15.6709 113.974 12.9158 113.974 10.4362V7.97959C113.974 4.39796 113.974 3.7551 114.02 3.02041C114.066 2.21684 114.25 1.84949 114.87 1.71173C115.145 1.66582 115.283 1.64286 115.444 1.64286C115.536 1.64286 115.627 1.59694 115.627 1.5051C115.627 1.36735 115.513 1.32143 115.26 1.32143C114.571 1.32143 113.492 1.39031 113.332 1.39031C113.194 1.39031 111.931 1.32143 110.898 1.32143C110.645 1.32143 110.531 1.36735 110.531 1.5051C110.531 1.59694 110.622 1.64286 110.714 1.64286C110.921 1.64286 111.311 1.66582 111.495 1.71173C112.252 1.87245 112.436 2.2398 112.482 3.02041C112.528 3.7551 112.528 4.39796 112.528 7.97959V10.8495C112.528 13.2143 112.252 15.1658 111.196 16.4745C110.37 17.4617 108.992 18.1276 107.592 18.1276C106.283 18.1276 105.25 17.9209 104.125 16.8648C103.138 15.9235 102.403 14.5 102.403 11.1939V7.97959C102.403 4.39796 102.403 3.7551 102.449 3.02041C102.495 2.21684 102.679 1.80357 103.298 1.71173C103.574 1.66582 103.712 1.64286 103.872 1.64286C103.964 1.64286 104.056 1.59694 104.056 1.5051C104.056 1.36735 103.941 1.32143 103.689 1.32143C103 1.32143 101.622 1.39031 101.416 1.39031C101.209 1.39031 99.8086 1.32143 98.7754 1.32143C98.5229 1.32143 98.4081 1.36735 98.4081 1.5051C98.4081 1.59694 98.4999 1.64286 98.5918 1.64286C98.7984 1.64286 99.1887 1.66582 99.3724 1.71173C100.13 1.87245 100.314 2.2398 100.36 3.02041C100.406 3.7551 100.406 4.39796 100.406 7.97959V11.3316Z" fill="#121629"/>
<path d="M122.861 19C124.101 19 125.341 18.7245 126.328 18.0357C127.912 16.9107 128.28 15.1658 128.28 14.2245C128.28 12.3878 127.637 10.9643 124.928 8.82908L124.285 8.32398C122.081 6.60204 121.484 5.77551 121.484 4.46684C121.484 2.79082 122.724 1.80357 124.308 1.80357C126.42 1.80357 127.04 2.76786 127.178 3.02041C127.316 3.27296 127.453 3.89286 127.476 4.16837C127.499 4.35204 127.522 4.46684 127.66 4.46684C127.775 4.46684 127.821 4.30612 127.821 3.93877C127.821 2.37755 127.912 1.6199 127.912 1.5051C127.912 1.39031 127.867 1.34439 127.683 1.34439C127.499 1.34439 127.316 1.32143 126.879 1.22959C126.305 1.09184 125.639 1 124.744 1C121.828 1 119.992 2.67602 119.992 5.13265C119.992 6.69388 120.543 8.11735 122.976 10.1148L124.009 10.9643C125.984 12.5944 126.65 13.5128 126.65 15.0969C126.65 16.5663 125.571 18.1505 123.367 18.1505C121.828 18.1505 120.313 17.5077 119.969 15.8087C119.9 15.4872 119.9 15.1658 119.9 14.9592C119.9 14.7755 119.877 14.7066 119.739 14.7066C119.624 14.7066 119.578 14.8214 119.555 15.074C119.532 15.4413 119.441 16.3597 119.441 17.5077C119.441 18.1276 119.463 18.2194 119.785 18.3801C120.726 18.8393 121.782 19 122.861 19Z" fill="#121629"/>
<path d="M2.99745 12.0204C2.99745 14.2245 2.99745 16.0383 2.88265 17.0026C2.79082 17.6684 2.67602 18.1735 2.21684 18.2653C2.0102 18.3112 1.73469 18.3571 1.52806 18.3571C1.39031 18.3571 1.34439 18.426 1.34439 18.4949C1.34439 18.6327 1.45918 18.6786 1.71173 18.6786C2.40051 18.6786 3.84694 18.6097 3.91582 18.6097C4.03061 18.6097 5.47704 18.6786 6.7398 18.6786C6.99235 18.6786 7.10714 18.6097 7.10714 18.4949C7.10714 18.426 7.06122 18.3571 6.92347 18.3571C6.71684 18.3571 6.21173 18.3112 5.89031 18.2653C5.20153 18.1735 5.06378 17.6684 4.9949 17.0026C4.8801 16.0383 4.8801 14.2245 4.8801 12.0204V2.58418C4.8801 2.35459 4.92602 2.19388 5.06378 2.14796C5.27041 2.05612 5.66071 2.0102 6.05102 2.0102C6.57908 2.0102 7.97959 1.91837 9.19643 3.15816C10.4133 4.39796 10.4821 5.93622 10.4821 6.69388C10.4821 8.80612 8.73725 10.4362 6.5102 10.4362C6.02806 10.4362 5.89031 10.4592 5.89031 10.6429C5.89031 10.7577 6.02806 10.8036 6.14286 10.8036C6.25765 10.8265 6.5102 10.8265 6.625 10.8265C9.8852 10.8265 12.273 8.62245 12.273 5.36224C12.273 4.14541 11.6301 3.11225 11.125 2.6301C10.7577 2.28571 9.72449 1.32143 6.85459 1.32143C5.79847 1.32143 4.46684 1.39031 3.96174 1.39031C3.77806 1.39031 2.40051 1.32143 1.36735 1.32143C1.1148 1.32143 1 1.36735 1 1.5051C1 1.59694 1.09184 1.64286 1.18367 1.64286C1.39031 1.64286 1.78061 1.66582 1.96429 1.71173C2.72194 1.87245 2.90561 2.2398 2.95153 3.02041C2.99745 3.7551 2.99745 4.39796 2.99745 7.97959V12.0204Z" stroke="#121629" stroke-width="0.24"/>
<path d="M15.2503 16.1531C14.837 17.301 14.3778 18.1735 13.3217 18.3112C13.1381 18.3342 12.8166 18.3571 12.6559 18.3571C12.5411 18.3571 12.4493 18.4031 12.4493 18.4949C12.4493 18.6327 12.587 18.6786 12.8855 18.6786C13.9646 18.6786 15.2273 18.6097 15.4799 18.6097C15.7324 18.6097 16.7197 18.6786 17.2707 18.6786C17.4773 18.6786 17.6151 18.6327 17.6151 18.4949C17.6151 18.4031 17.5462 18.3571 17.3855 18.3571H17.1559C16.7656 18.3571 16.2835 18.1505 16.2835 17.6913C16.2835 17.2781 16.3983 16.727 16.6049 16.1531L17.9824 12.0893C18.0284 11.9745 18.0972 11.9056 18.212 11.9056H23.1483C23.2631 11.9056 23.309 11.9515 23.3549 12.0434L25.4901 17.6913C25.6279 18.0587 25.4901 18.2653 25.3523 18.3112C25.2605 18.3342 25.1916 18.3801 25.1916 18.4719C25.1916 18.6097 25.4442 18.6097 25.8804 18.6327C27.4646 18.6786 29.1406 18.6786 29.485 18.6786C29.7375 18.6786 29.9442 18.6327 29.9442 18.4949C29.9442 18.3801 29.8523 18.3571 29.7146 18.3571C29.485 18.3571 29.1406 18.3342 28.7962 18.2194C28.3141 18.0816 27.6483 17.7143 26.8217 15.6709C25.4212 12.1811 21.8166 2.69898 21.4722 1.82653C21.1967 1.1148 21.1049 1 20.9671 1C20.8294 1 20.7375 1.13775 20.462 1.89541L15.2503 16.1531ZM18.4646 11.0791C18.3957 11.0791 18.3498 11.0332 18.3957 10.9184L20.4161 4.71939C20.5309 4.375 20.6457 4.375 20.7605 4.71939L22.9416 10.9184C22.9646 11.0102 22.9646 11.0791 22.8498 11.0791H18.4646Z" stroke="#121629" stroke-width="0.24"/>
<path d="M33.691 12.0204C33.691 14.2245 33.691 16.0383 33.5762 17.0026C33.4844 17.6684 33.3696 18.1735 32.9104 18.2653C32.7038 18.3112 32.4282 18.3571 32.2216 18.3571C32.0839 18.3571 32.0379 18.426 32.0379 18.4949C32.0379 18.6327 32.1527 18.6786 32.4053 18.6786C33.0941 18.6786 34.4257 18.6097 34.6094 18.6097C34.793 18.6097 36.1247 18.6786 37.2497 18.6786C37.5022 18.6786 37.617 18.6097 37.617 18.4949C37.617 18.426 37.5711 18.3571 37.4334 18.3571C37.2267 18.3571 36.8594 18.3112 36.5379 18.2653C35.8492 18.1735 35.7114 17.6684 35.6425 17.0026C35.5277 16.0383 35.5277 14.2245 35.5277 12.0204V9.77041H35.6425C36.7446 11.125 41.6119 16.3827 42.6451 17.2321C43.6323 18.0128 44.2063 18.5179 45.4231 18.6327C45.9282 18.6786 46.3645 18.6786 47.0073 18.6786H48.1782C48.5686 18.6786 48.6834 18.6097 48.6834 18.4949C48.6834 18.4031 48.5456 18.3571 48.3849 18.3571C48.2242 18.3571 47.5584 18.3112 46.9614 18.0587C45.8594 17.5995 45.4691 17.2321 43.5405 15.4413C42.5992 14.5689 37.8237 9.63265 37.2267 8.96684C37.7089 8.39286 41.7038 4.4898 42.2777 3.93877C43.3109 2.95153 43.816 2.37755 44.7573 1.96429C45.2165 1.75765 45.6987 1.64286 46.043 1.64286C46.2267 1.64286 46.2726 1.59694 46.2726 1.48214C46.2726 1.36735 46.1808 1.32143 45.9283 1.32143C45.3543 1.32143 43.839 1.39031 43.7242 1.39031C43.1731 1.39031 42.4614 1.32143 42.0022 1.32143C41.8415 1.32143 41.7267 1.36735 41.7267 1.48214C41.7267 1.57398 41.8186 1.6199 41.9334 1.66582C42.117 1.73469 42.2318 1.87245 42.2318 2.14796C42.2318 2.53826 41.6349 3.1352 40.992 3.80102C40.1655 4.69643 36.0099 8.92092 35.6196 9.35714H35.5277V7.97959C35.5277 4.39796 35.5277 3.7551 35.5737 3.02041C35.6196 2.21684 35.8032 1.82653 36.4231 1.71173C36.6987 1.66582 36.8364 1.64286 36.9971 1.64286C37.089 1.64286 37.1808 1.59694 37.1808 1.5051C37.1808 1.36735 37.066 1.32143 36.8135 1.32143C36.1247 1.32143 34.793 1.39031 34.5864 1.39031C34.4487 1.39031 33.0941 1.32143 32.0609 1.32143C31.8084 1.32143 31.6936 1.36735 31.6936 1.5051C31.6936 1.59694 31.7854 1.64286 31.8772 1.64286C32.0839 1.64286 32.4742 1.66582 32.6578 1.71173C33.4155 1.87245 33.5992 2.2398 33.6451 3.02041C33.691 3.7551 33.691 4.39796 33.691 7.97959V12.0204Z" stroke="#121629" stroke-width="0.24"/>
<path d="M56.3047 2.30867L59.1976 2.35459C61.4017 2.40051 61.9527 2.92857 62.0216 3.61735L62.0445 3.8699C62.0675 4.19133 62.1134 4.2602 62.2282 4.2602C62.32 4.2602 62.3889 4.16837 62.3889 3.96174C62.3889 3.70918 62.4578 2.125 62.4578 1.43622C62.4578 1.29847 62.4578 1.16071 62.343 1.16071C62.2512 1.16071 62.0445 1.22959 61.7001 1.27551C61.3328 1.34439 60.8047 1.39031 60.07 1.39031H51.4603C51.1848 1.39031 50.3124 1.34439 49.6466 1.27551C49.0267 1.22959 48.7971 1 48.6364 1C48.5445 1 48.4527 1.29847 48.4068 1.43622C48.3608 1.6199 47.9017 3.59439 47.9017 3.82398C47.9017 3.96174 47.9476 4.03061 48.0165 4.03061C48.1083 4.03061 48.1772 3.98469 48.2461 3.80102C48.3149 3.64031 48.3838 3.47959 48.6364 3.08928C49.0037 2.53826 49.5547 2.37755 50.9782 2.35459L54.3762 2.30867V12.0204C54.3762 14.2245 54.3762 16.0383 54.2614 17.0026C54.1695 17.6684 54.0547 18.1735 53.5955 18.2653C53.3889 18.3112 53.1134 18.3571 52.9068 18.3571C52.769 18.3571 52.7231 18.426 52.7231 18.4949C52.7231 18.6327 52.8379 18.6786 53.0904 18.6786C53.7792 18.6786 55.2256 18.6097 55.3404 18.6097C55.4552 18.6097 56.9017 18.6786 58.1644 18.6786C58.417 18.6786 58.5318 18.6097 58.5318 18.4949C58.5318 18.426 58.4858 18.3571 58.3481 18.3571C58.1415 18.3571 57.6364 18.3112 57.3149 18.2653C56.6262 18.1735 56.4884 17.6684 56.4195 17.0026C56.3047 16.0383 56.3047 14.2245 56.3047 12.0204V2.30867Z" stroke="#121629" stroke-width="0.24"/>
<path d="M64.4353 9.97704C64.4353 14.1097 67.0527 19 73.3435 19C78.8767 19 82.5042 14.7526 82.5042 9.60969C82.5042 4.2602 78.6471 1 73.4812 1C67.1445 1 64.4353 6.25765 64.4353 9.97704ZM66.6164 9.33418C66.6164 4.30612 69.4864 1.78061 73.3205 1.78061C76.9481 1.78061 80.3001 4.74235 80.3001 10.2526C80.3001 16.9337 76.0297 18.1276 73.9634 18.1276C69.8307 18.1276 66.6164 14.6837 66.6164 9.33418Z" stroke="#121629" stroke-width="0.24"/>
<path d="M89.7539 7.97959C89.7539 4.39796 89.7539 3.7551 89.7998 3.02041C89.8458 2.21684 90.0294 1.82653 90.6952 1.71173C90.9708 1.66582 91.2922 1.64286 91.4529 1.64286C91.5447 1.64286 91.6366 1.59694 91.6366 1.5051C91.6366 1.36735 91.5218 1.32143 91.2692 1.32143C90.5805 1.32143 88.9044 1.39031 88.7896 1.39031C88.6748 1.39031 87.2284 1.32143 86.1953 1.32143C85.9427 1.32143 85.8279 1.36735 85.8279 1.5051C85.8279 1.59694 85.9197 1.64286 86.0116 1.64286C86.2182 1.64286 86.6085 1.66582 86.7922 1.71173C87.5498 1.87245 87.7335 2.2398 87.7794 3.02041C87.8254 3.7551 87.8253 4.39796 87.8253 7.97959V12.0204C87.8253 14.2245 87.8254 16.0383 87.7106 17.0026C87.6187 17.6684 87.5039 18.1735 87.0447 18.2653C86.8381 18.3112 86.5626 18.3571 86.356 18.3571C86.2182 18.3571 86.1723 18.426 86.1723 18.4949C86.1723 18.6327 86.2871 18.6786 86.5396 18.6786C86.884 18.6786 87.3891 18.6556 87.8483 18.6327C88.3075 18.6327 88.6978 18.6097 88.7896 18.6097C89.4555 18.6097 90.1672 18.6327 91.1315 18.6786C92.0958 18.7015 93.2896 18.7474 94.9427 18.7474C96.1595 18.7474 96.2284 18.6556 96.3891 18.1276C96.5728 17.4617 96.7335 16.0842 96.7335 15.8316C96.7335 15.5791 96.7106 15.4872 96.5958 15.4872C96.458 15.4872 96.4121 15.602 96.3891 15.7857C96.3203 16.2219 96.0907 16.7959 95.7922 17.1633C95.2412 17.8291 94.231 17.852 93.0141 17.852C91.2233 17.852 90.6264 17.6913 90.259 17.324C89.8458 16.9107 89.7539 15.4413 89.7539 12.0663V7.97959Z" stroke="#121629" stroke-width="0.24"/>
<path d="M100.406 11.3316C100.406 14.6837 101.278 16.2908 102.403 17.3699C104.033 18.9082 106.352 19 107.133 19C108.487 19 110.209 18.7704 111.862 17.301C113.699 15.6709 113.974 12.9158 113.974 10.4362V7.97959C113.974 4.39796 113.974 3.7551 114.02 3.02041C114.066 2.21684 114.25 1.84949 114.87 1.71173C115.145 1.66582 115.283 1.64286 115.444 1.64286C115.536 1.64286 115.627 1.59694 115.627 1.5051C115.627 1.36735 115.513 1.32143 115.26 1.32143C114.571 1.32143 113.492 1.39031 113.332 1.39031C113.194 1.39031 111.931 1.32143 110.898 1.32143C110.645 1.32143 110.531 1.36735 110.531 1.5051C110.531 1.59694 110.622 1.64286 110.714 1.64286C110.921 1.64286 111.311 1.66582 111.495 1.71173C112.252 1.87245 112.436 2.2398 112.482 3.02041C112.528 3.7551 112.528 4.39796 112.528 7.97959V10.8495C112.528 13.2143 112.252 15.1658 111.196 16.4745C110.37 17.4617 108.992 18.1276 107.592 18.1276C106.283 18.1276 105.25 17.9209 104.125 16.8648C103.138 15.9235 102.403 14.5 102.403 11.1939V7.97959C102.403 4.39796 102.403 3.7551 102.449 3.02041C102.495 2.21684 102.679 1.80357 103.298 1.71173C103.574 1.66582 103.712 1.64286 103.872 1.64286C103.964 1.64286 104.056 1.59694 104.056 1.5051C104.056 1.36735 103.941 1.32143 103.689 1.32143C103 1.32143 101.622 1.39031 101.416 1.39031C101.209 1.39031 99.8086 1.32143 98.7754 1.32143C98.5229 1.32143 98.4081 1.36735 98.4081 1.5051C98.4081 1.59694 98.4999 1.64286 98.5918 1.64286C98.7984 1.64286 99.1887 1.66582 99.3724 1.71173C100.13 1.87245 100.314 2.2398 100.36 3.02041C100.406 3.7551 100.406 4.39796 100.406 7.97959V11.3316Z" stroke="#121629" stroke-width="0.24"/>
<path d="M122.861 19C124.101 19 125.341 18.7245 126.328 18.0357C127.912 16.9107 128.28 15.1658 128.28 14.2245C128.28 12.3878 127.637 10.9643 124.928 8.82908L124.285 8.32398C122.081 6.60204 121.484 5.77551 121.484 4.46684C121.484 2.79082 122.724 1.80357 124.308 1.80357C126.42 1.80357 127.04 2.76786 127.178 3.02041C127.316 3.27296 127.453 3.89286 127.476 4.16837C127.499 4.35204 127.522 4.46684 127.66 4.46684C127.775 4.46684 127.821 4.30612 127.821 3.93877C127.821 2.37755 127.912 1.6199 127.912 1.5051C127.912 1.39031 127.867 1.34439 127.683 1.34439C127.499 1.34439 127.316 1.32143 126.879 1.22959C126.305 1.09184 125.639 1 124.744 1C121.828 1 119.992 2.67602 119.992 5.13265C119.992 6.69388 120.543 8.11735 122.976 10.1148L124.009 10.9643C125.984 12.5944 126.65 13.5128 126.65 15.0969C126.65 16.5663 125.571 18.1505 123.367 18.1505C121.828 18.1505 120.313 17.5077 119.969 15.8087C119.9 15.4872 119.9 15.1658 119.9 14.9592C119.9 14.7755 119.877 14.7066 119.739 14.7066C119.624 14.7066 119.578 14.8214 119.555 15.074C119.532 15.4413 119.441 16.3597 119.441 17.5077C119.441 18.1276 119.463 18.2194 119.785 18.3801C120.726 18.8393 121.782 19 122.861 19Z" stroke="#121629" stroke-width="0.24"/>
</svg>
